<?xml version="1.0" encoding="utf-8"?>
<!-- Svg Vector Icons : http://www.onlinewebfonts.com/icon -->
<!DOCTYPE svg PUBLIC "-//W3C//DTD SVG 1.1//EN" "http://www.w3.org/Graphics/SVG/1.1/DTD/svg11.dtd">
<svg version="1.1" xmlns="http://www.w3.org/2000/svg" xmlns:xlink="http://www.w3.org/1999/xlink" x="0px" y="0px" viewBox="0 0 1000 1000" enable-background="new 0 0 1000 1000" xml:space="preserve">
<metadata> Svg Vector Icons : http://www.onlinewebfonts.com/icon </metadata>
<g><path d="M509,989.4c-108.1,1.3-197.5-25.8-279.4-78.9c-29.3-19-55.9-41.3-80.7-65.8c-7.2-7.1-7.1-10.4,0-17.5c37.8-37.8,75.6-75.6,113.4-113.4c7-7,10.1-7,17.4,0.6c44.9,46.1,99.5,74.2,162.4,86.6c69.3,13.7,135,2.9,197.5-29.4c44.6-23.1,82.7-54,111.6-95.6c26.4-38.1,42.5-80.3,50.1-125.8c13.8-82.4-3.3-158.2-50.6-226.9c-40.7-59.2-97.3-96.2-165.2-117.2c-26.9-8.3-54.4-13.3-82.5-13.9c-59.9-1.3-114.5,16-165.2,47.2c-12.5,7.7-24.5,16.2-36.2,25.2c-7.9,6.1-7.9,7.7-1,14.7c27.4,27.4,54.8,54.8,82.2,82.2c2.4,2.4,6,4.6,4.4,8.7c-1.4,3.8-5.3,3.2-8.4,3.7c-33.9,4.9-67.8,9.9-101.7,14.9c-48.9,7.2-97.8,14.5-146.7,21.8c-36,5.3-71.9,10.7-107.9,16.1c-11.2,1.7-13.8-0.5-12.1-11.7C18.5,361,26.8,307,34.9,253.1c7.8-51.9,15.4-103.8,23-155.7c2-13.4,3.8-26.8,5.8-40.1c0.4-2.8,1.1-5.7,4.4-6.6c3-0.8,4.7,1.2,6.6,3.1c25.9,26,51.7,51.9,77.6,77.9c9.2,9.2,10.9,9.4,20.7,0.7C231.1,80.4,298.1,44.8,373.4,25c34.8-9.2,70.2-15.2,106.4-14.6c10,0.2,20.1,0.3,30.1,0c55.2-1.5,108.1,10,159.4,28.9C792.9,85,882.2,168.9,941.3,285.6c24.2,47.7,37.8,98.7,44.7,151.7c4.7,35.6,5.1,71.6,1.9,106.9c-9.1,101.7-46.5,192.6-112.5,271.1C815.8,886,742.1,936.4,654.3,965.7C603.9,982.5,552.2,991.7,509,989.4z"/><path d="M500.9,397.1c61,0.4,109.8,41.5,110.5,111.3c0.5,55.7-50.1,103.8-107.5,103.7c-59.6-0.1-108.4-48.7-108.2-107.7C395.9,445.9,443.8,396.9,500.9,397.1z"/></g>
</svg>